<mxfile host="app.diagrams.net" modified="2021-05-08T09:46:08.329Z" agent="5.0 (Windows)" etag="T2PAEVUV6H7039fd30Qh" version="14.6.10" type="github">
  <diagram id="lDO1SkZu1mn5w61qTfaN" name="Page-1">
    <mxGraphModel dx="1422" dy="803" grid="1" gridSize="10" guides="1" tooltips="1" connect="1" arrows="1" fold="1" page="1" pageScale="1" pageWidth="850" pageHeight="1100" math="0" shadow="0">
      <root>
        <mxCell id="0" />
        <mxCell id="1" parent="0" />
        <mxCell id="CjYXlneHUwc7KOXOLkdy-26" style="edgeStyle=none;rounded=0;orthogonalLoop=1;jettySize=auto;html=1;exitX=1;exitY=0.3333333333333333;exitDx=0;exitDy=0;exitPerimeter=0;entryX=0;entryY=0.5;entryDx=0;entryDy=0;fontSize=10;" edge="1" parent="1" source="CjYXlneHUwc7KOXOLkdy-1" target="CjYXlneHUwc7KOXOLkdy-24">
          <mxGeometry relative="1" as="geometry" />
        </mxCell>
        <mxCell id="CjYXlneHUwc7KOXOLkdy-29" style="edgeStyle=none;rounded=0;orthogonalLoop=1;jettySize=auto;html=1;exitX=1;exitY=0.3333333333333333;exitDx=0;exitDy=0;exitPerimeter=0;entryX=0;entryY=0.5;entryDx=0;entryDy=0;fontSize=10;" edge="1" parent="1" source="CjYXlneHUwc7KOXOLkdy-1" target="CjYXlneHUwc7KOXOLkdy-28">
          <mxGeometry relative="1" as="geometry" />
        </mxCell>
        <mxCell id="CjYXlneHUwc7KOXOLkdy-32" style="edgeStyle=none;rounded=0;orthogonalLoop=1;jettySize=auto;html=1;exitX=1;exitY=0.3333333333333333;exitDx=0;exitDy=0;exitPerimeter=0;entryX=0;entryY=0.5;entryDx=0;entryDy=0;fontSize=10;" edge="1" parent="1" source="CjYXlneHUwc7KOXOLkdy-1" target="CjYXlneHUwc7KOXOLkdy-31">
          <mxGeometry relative="1" as="geometry" />
        </mxCell>
        <mxCell id="CjYXlneHUwc7KOXOLkdy-1" value="Non-registered User" style="shape=umlActor;verticalLabelPosition=bottom;verticalAlign=top;html=1;outlineConnect=0;" vertex="1" parent="1">
          <mxGeometry x="50" y="90" width="30" height="60" as="geometry" />
        </mxCell>
        <mxCell id="CjYXlneHUwc7KOXOLkdy-13" style="rounded=0;orthogonalLoop=1;jettySize=auto;html=1;exitX=0;exitY=0.3333333333333333;exitDx=0;exitDy=0;exitPerimeter=0;entryX=1;entryY=0.5;entryDx=0;entryDy=0;" edge="1" parent="1" source="CjYXlneHUwc7KOXOLkdy-4" target="CjYXlneHUwc7KOXOLkdy-11">
          <mxGeometry relative="1" as="geometry">
            <mxPoint x="570" y="120" as="targetPoint" />
          </mxGeometry>
        </mxCell>
        <mxCell id="CjYXlneHUwc7KOXOLkdy-27" style="edgeStyle=none;rounded=0;orthogonalLoop=1;jettySize=auto;html=1;exitX=0;exitY=0.3333333333333333;exitDx=0;exitDy=0;exitPerimeter=0;entryX=1;entryY=0.5;entryDx=0;entryDy=0;fontSize=10;" edge="1" parent="1" source="CjYXlneHUwc7KOXOLkdy-4" target="CjYXlneHUwc7KOXOLkdy-24">
          <mxGeometry relative="1" as="geometry" />
        </mxCell>
        <mxCell id="CjYXlneHUwc7KOXOLkdy-45" style="edgeStyle=none;rounded=0;orthogonalLoop=1;jettySize=auto;html=1;exitX=0;exitY=0.3333333333333333;exitDx=0;exitDy=0;exitPerimeter=0;entryX=1;entryY=0.5;entryDx=0;entryDy=0;fontSize=10;" edge="1" parent="1" source="CjYXlneHUwc7KOXOLkdy-4" target="CjYXlneHUwc7KOXOLkdy-44">
          <mxGeometry relative="1" as="geometry" />
        </mxCell>
        <mxCell id="CjYXlneHUwc7KOXOLkdy-63" style="edgeStyle=none;rounded=0;orthogonalLoop=1;jettySize=auto;html=1;exitX=0;exitY=0.3333333333333333;exitDx=0;exitDy=0;exitPerimeter=0;entryX=1;entryY=0.5;entryDx=0;entryDy=0;fontSize=10;" edge="1" parent="1" source="CjYXlneHUwc7KOXOLkdy-4" target="CjYXlneHUwc7KOXOLkdy-62">
          <mxGeometry relative="1" as="geometry" />
        </mxCell>
        <mxCell id="CjYXlneHUwc7KOXOLkdy-65" style="edgeStyle=none;rounded=0;orthogonalLoop=1;jettySize=auto;html=1;exitX=0;exitY=0.3333333333333333;exitDx=0;exitDy=0;exitPerimeter=0;entryX=1;entryY=0.5;entryDx=0;entryDy=0;fontSize=10;" edge="1" parent="1" source="CjYXlneHUwc7KOXOLkdy-4" target="CjYXlneHUwc7KOXOLkdy-64">
          <mxGeometry relative="1" as="geometry" />
        </mxCell>
        <mxCell id="CjYXlneHUwc7KOXOLkdy-4" value="Admin" style="shape=umlActor;verticalLabelPosition=bottom;verticalAlign=top;html=1;outlineConnect=0;" vertex="1" parent="1">
          <mxGeometry x="790" y="160" width="30" height="60" as="geometry" />
        </mxCell>
        <mxCell id="CjYXlneHUwc7KOXOLkdy-16" style="edgeStyle=none;rounded=0;orthogonalLoop=1;jettySize=auto;html=1;exitX=1;exitY=0.3333333333333333;exitDx=0;exitDy=0;exitPerimeter=0;entryX=0;entryY=0.5;entryDx=0;entryDy=0;fontSize=16;" edge="1" parent="1" source="CjYXlneHUwc7KOXOLkdy-5" target="CjYXlneHUwc7KOXOLkdy-11">
          <mxGeometry relative="1" as="geometry" />
        </mxCell>
        <mxCell id="CjYXlneHUwc7KOXOLkdy-25" style="edgeStyle=none;rounded=0;orthogonalLoop=1;jettySize=auto;html=1;exitX=1;exitY=0.3333333333333333;exitDx=0;exitDy=0;exitPerimeter=0;entryX=0;entryY=0.5;entryDx=0;entryDy=0;fontSize=10;" edge="1" parent="1" source="CjYXlneHUwc7KOXOLkdy-5" target="CjYXlneHUwc7KOXOLkdy-24">
          <mxGeometry relative="1" as="geometry" />
        </mxCell>
        <mxCell id="CjYXlneHUwc7KOXOLkdy-30" style="edgeStyle=none;rounded=0;orthogonalLoop=1;jettySize=auto;html=1;exitX=1;exitY=0.3333333333333333;exitDx=0;exitDy=0;exitPerimeter=0;entryX=0;entryY=0.5;entryDx=0;entryDy=0;fontSize=10;" edge="1" parent="1" source="CjYXlneHUwc7KOXOLkdy-5" target="CjYXlneHUwc7KOXOLkdy-28">
          <mxGeometry relative="1" as="geometry" />
        </mxCell>
        <mxCell id="CjYXlneHUwc7KOXOLkdy-33" style="edgeStyle=none;rounded=0;orthogonalLoop=1;jettySize=auto;html=1;exitX=1;exitY=0.3333333333333333;exitDx=0;exitDy=0;exitPerimeter=0;entryX=0;entryY=0.5;entryDx=0;entryDy=0;fontSize=10;" edge="1" parent="1" source="CjYXlneHUwc7KOXOLkdy-5" target="CjYXlneHUwc7KOXOLkdy-31">
          <mxGeometry relative="1" as="geometry" />
        </mxCell>
        <mxCell id="CjYXlneHUwc7KOXOLkdy-53" style="edgeStyle=none;rounded=0;orthogonalLoop=1;jettySize=auto;html=1;exitX=1;exitY=0.3333333333333333;exitDx=0;exitDy=0;exitPerimeter=0;entryX=0;entryY=0.5;entryDx=0;entryDy=0;fontSize=12;" edge="1" parent="1" source="CjYXlneHUwc7KOXOLkdy-5" target="CjYXlneHUwc7KOXOLkdy-51">
          <mxGeometry relative="1" as="geometry" />
        </mxCell>
        <mxCell id="CjYXlneHUwc7KOXOLkdy-55" style="edgeStyle=none;rounded=0;orthogonalLoop=1;jettySize=auto;html=1;exitX=1;exitY=0.3333333333333333;exitDx=0;exitDy=0;exitPerimeter=0;entryX=0;entryY=0.5;entryDx=0;entryDy=0;fontSize=12;" edge="1" parent="1" source="CjYXlneHUwc7KOXOLkdy-5" target="CjYXlneHUwc7KOXOLkdy-46">
          <mxGeometry relative="1" as="geometry" />
        </mxCell>
        <mxCell id="CjYXlneHUwc7KOXOLkdy-56" style="edgeStyle=none;rounded=0;orthogonalLoop=1;jettySize=auto;html=1;exitX=1;exitY=0.3333333333333333;exitDx=0;exitDy=0;exitPerimeter=0;entryX=0;entryY=0.5;entryDx=0;entryDy=0;fontSize=12;" edge="1" parent="1" source="CjYXlneHUwc7KOXOLkdy-5" target="CjYXlneHUwc7KOXOLkdy-47">
          <mxGeometry relative="1" as="geometry" />
        </mxCell>
        <mxCell id="CjYXlneHUwc7KOXOLkdy-57" style="edgeStyle=none;rounded=0;orthogonalLoop=1;jettySize=auto;html=1;exitX=1;exitY=0.3333333333333333;exitDx=0;exitDy=0;exitPerimeter=0;entryX=0;entryY=0.5;entryDx=0;entryDy=0;fontSize=12;" edge="1" parent="1" source="CjYXlneHUwc7KOXOLkdy-5" target="CjYXlneHUwc7KOXOLkdy-48">
          <mxGeometry relative="1" as="geometry" />
        </mxCell>
        <mxCell id="CjYXlneHUwc7KOXOLkdy-58" style="edgeStyle=none;rounded=0;orthogonalLoop=1;jettySize=auto;html=1;exitX=1;exitY=0.3333333333333333;exitDx=0;exitDy=0;exitPerimeter=0;entryX=0;entryY=0.5;entryDx=0;entryDy=0;fontSize=12;" edge="1" parent="1" source="CjYXlneHUwc7KOXOLkdy-5" target="CjYXlneHUwc7KOXOLkdy-49">
          <mxGeometry relative="1" as="geometry" />
        </mxCell>
        <mxCell id="CjYXlneHUwc7KOXOLkdy-5" value="Registered User" style="shape=umlActor;verticalLabelPosition=bottom;verticalAlign=top;html=1;outlineConnect=0;" vertex="1" parent="1">
          <mxGeometry x="40" y="270" width="30" height="60" as="geometry" />
        </mxCell>
        <mxCell id="CjYXlneHUwc7KOXOLkdy-18" style="edgeStyle=none;rounded=0;orthogonalLoop=1;jettySize=auto;html=1;entryX=0.5;entryY=0;entryDx=0;entryDy=0;fontSize=16;dashed=1;" edge="1" parent="1" source="CjYXlneHUwc7KOXOLkdy-11" target="CjYXlneHUwc7KOXOLkdy-17">
          <mxGeometry relative="1" as="geometry" />
        </mxCell>
        <mxCell id="CjYXlneHUwc7KOXOLkdy-23" value="&amp;lt;&amp;lt;include&amp;gt;&amp;gt;" style="edgeLabel;html=1;align=center;verticalAlign=middle;resizable=0;points=[];fontSize=10;" vertex="1" connectable="0" parent="CjYXlneHUwc7KOXOLkdy-18">
          <mxGeometry x="-0.381" y="-1" relative="1" as="geometry">
            <mxPoint as="offset" />
          </mxGeometry>
        </mxCell>
        <mxCell id="CjYXlneHUwc7KOXOLkdy-11" value="Login" style="ellipse;whiteSpace=wrap;html=1;fontSize=10;" vertex="1" parent="1">
          <mxGeometry x="355" y="40" width="140" height="20" as="geometry" />
        </mxCell>
        <mxCell id="CjYXlneHUwc7KOXOLkdy-12" value="" style="endArrow=none;html=1;rounded=0;edgeStyle=orthogonalEdgeStyle;" edge="1" parent="1">
          <mxGeometry width="50" height="50" relative="1" as="geometry">
            <mxPoint x="760" y="640" as="sourcePoint" />
            <mxPoint x="760" y="680" as="targetPoint" />
            <Array as="points">
              <mxPoint x="760" />
              <mxPoint x="760" y="380" />
            </Array>
          </mxGeometry>
        </mxCell>
        <mxCell id="CjYXlneHUwc7KOXOLkdy-14" value="" style="endArrow=none;html=1;rounded=0;edgeStyle=orthogonalEdgeStyle;" edge="1" parent="1">
          <mxGeometry width="50" height="50" relative="1" as="geometry">
            <mxPoint x="760" as="sourcePoint" />
            <mxPoint x="760" y="680" as="targetPoint" />
            <Array as="points">
              <mxPoint x="130" />
            </Array>
          </mxGeometry>
        </mxCell>
        <mxCell id="CjYXlneHUwc7KOXOLkdy-15" value="Home Square Web Application" style="text;html=1;align=center;verticalAlign=middle;resizable=0;points=[];autosize=1;strokeColor=none;fontSize=16;fontStyle=1" vertex="1" parent="1">
          <mxGeometry x="315" y="10" width="250" height="20" as="geometry" />
        </mxCell>
        <mxCell id="CjYXlneHUwc7KOXOLkdy-17" value="Verify password" style="ellipse;whiteSpace=wrap;html=1;fontSize=10;" vertex="1" parent="1">
          <mxGeometry x="450" y="90" width="140" height="30" as="geometry" />
        </mxCell>
        <mxCell id="CjYXlneHUwc7KOXOLkdy-20" style="edgeStyle=none;rounded=0;orthogonalLoop=1;jettySize=auto;html=1;exitX=0.5;exitY=0;exitDx=0;exitDy=0;entryX=0.5;entryY=1;entryDx=0;entryDy=0;dashed=1;fontSize=16;" edge="1" parent="1" source="CjYXlneHUwc7KOXOLkdy-19" target="CjYXlneHUwc7KOXOLkdy-11">
          <mxGeometry relative="1" as="geometry" />
        </mxCell>
        <mxCell id="CjYXlneHUwc7KOXOLkdy-22" value="&amp;lt;&amp;lt;extend&amp;gt;&amp;gt;" style="edgeLabel;html=1;align=center;verticalAlign=middle;resizable=0;points=[];fontSize=10;" vertex="1" connectable="0" parent="CjYXlneHUwc7KOXOLkdy-20">
          <mxGeometry x="-0.3836" y="1" relative="1" as="geometry">
            <mxPoint as="offset" />
          </mxGeometry>
        </mxCell>
        <mxCell id="CjYXlneHUwc7KOXOLkdy-19" value="Display login error" style="ellipse;whiteSpace=wrap;html=1;fontSize=10;" vertex="1" parent="1">
          <mxGeometry x="300" y="90" width="140" height="30" as="geometry" />
        </mxCell>
        <mxCell id="CjYXlneHUwc7KOXOLkdy-24" value="Browse/Search" style="ellipse;whiteSpace=wrap;html=1;fontSize=10;" vertex="1" parent="1">
          <mxGeometry x="355" y="130" width="140" height="30" as="geometry" />
        </mxCell>
        <mxCell id="CjYXlneHUwc7KOXOLkdy-39" style="edgeStyle=none;rounded=0;orthogonalLoop=1;jettySize=auto;html=1;exitX=0;exitY=1;exitDx=0;exitDy=0;entryX=0.5;entryY=0;entryDx=0;entryDy=0;dashed=1;fontSize=10;" edge="1" parent="1" source="CjYXlneHUwc7KOXOLkdy-28" target="CjYXlneHUwc7KOXOLkdy-38">
          <mxGeometry relative="1" as="geometry" />
        </mxCell>
        <mxCell id="CjYXlneHUwc7KOXOLkdy-42" value="&amp;lt;&amp;lt;include&amp;gt;&amp;gt;" style="edgeLabel;html=1;align=center;verticalAlign=middle;resizable=0;points=[];fontSize=10;" vertex="1" connectable="0" parent="CjYXlneHUwc7KOXOLkdy-39">
          <mxGeometry x="-0.4854" relative="1" as="geometry">
            <mxPoint as="offset" />
          </mxGeometry>
        </mxCell>
        <mxCell id="CjYXlneHUwc7KOXOLkdy-40" style="edgeStyle=none;rounded=0;orthogonalLoop=1;jettySize=auto;html=1;exitX=1;exitY=1;exitDx=0;exitDy=0;entryX=0.5;entryY=0;entryDx=0;entryDy=0;dashed=1;fontSize=10;" edge="1" parent="1" source="CjYXlneHUwc7KOXOLkdy-28" target="CjYXlneHUwc7KOXOLkdy-37">
          <mxGeometry relative="1" as="geometry" />
        </mxCell>
        <mxCell id="CjYXlneHUwc7KOXOLkdy-43" value="&amp;lt;&amp;lt;include&amp;gt;&amp;gt;" style="edgeLabel;html=1;align=center;verticalAlign=middle;resizable=0;points=[];fontSize=10;" vertex="1" connectable="0" parent="CjYXlneHUwc7KOXOLkdy-40">
          <mxGeometry x="-0.6052" y="-1" relative="1" as="geometry">
            <mxPoint as="offset" />
          </mxGeometry>
        </mxCell>
        <mxCell id="CjYXlneHUwc7KOXOLkdy-28" value="Order" style="ellipse;whiteSpace=wrap;html=1;fontSize=10;" vertex="1" parent="1">
          <mxGeometry x="355" y="170" width="140" height="30" as="geometry" />
        </mxCell>
        <mxCell id="CjYXlneHUwc7KOXOLkdy-35" style="edgeStyle=none;rounded=0;orthogonalLoop=1;jettySize=auto;html=1;exitX=0.5;exitY=1;exitDx=0;exitDy=0;fontSize=10;dashed=1;" edge="1" parent="1" source="CjYXlneHUwc7KOXOLkdy-31" target="CjYXlneHUwc7KOXOLkdy-34">
          <mxGeometry relative="1" as="geometry" />
        </mxCell>
        <mxCell id="CjYXlneHUwc7KOXOLkdy-36" value="&amp;lt;&amp;lt;include&amp;gt;&amp;gt;" style="edgeLabel;html=1;align=center;verticalAlign=middle;resizable=0;points=[];fontSize=10;" vertex="1" connectable="0" parent="CjYXlneHUwc7KOXOLkdy-35">
          <mxGeometry x="-0.3693" relative="1" as="geometry">
            <mxPoint y="3" as="offset" />
          </mxGeometry>
        </mxCell>
        <mxCell id="CjYXlneHUwc7KOXOLkdy-31" value="make payment" style="ellipse;whiteSpace=wrap;html=1;fontSize=10;" vertex="1" parent="1">
          <mxGeometry x="355" y="285" width="140" height="30" as="geometry" />
        </mxCell>
        <mxCell id="CjYXlneHUwc7KOXOLkdy-34" value="Verify payment" style="ellipse;whiteSpace=wrap;html=1;fontSize=10;" vertex="1" parent="1">
          <mxGeometry x="355" y="360" width="140" height="30" as="geometry" />
        </mxCell>
        <mxCell id="CjYXlneHUwc7KOXOLkdy-37" value="Pickup" style="ellipse;whiteSpace=wrap;html=1;fontSize=10;" vertex="1" parent="1">
          <mxGeometry x="450" y="230" width="140" height="30" as="geometry" />
        </mxCell>
        <mxCell id="CjYXlneHUwc7KOXOLkdy-38" value="Delivery" style="ellipse;whiteSpace=wrap;html=1;fontSize=10;" vertex="1" parent="1">
          <mxGeometry x="300" y="230" width="140" height="30" as="geometry" />
        </mxCell>
        <mxCell id="CjYXlneHUwc7KOXOLkdy-44" value="Order management" style="ellipse;whiteSpace=wrap;html=1;fontSize=10;" vertex="1" parent="1">
          <mxGeometry x="570" y="260" width="140" height="30" as="geometry" />
        </mxCell>
        <mxCell id="CjYXlneHUwc7KOXOLkdy-46" value="Manage profile" style="ellipse;whiteSpace=wrap;html=1;fontSize=10;" vertex="1" parent="1">
          <mxGeometry x="355" y="441.68" width="140" height="30" as="geometry" />
        </mxCell>
        <mxCell id="CjYXlneHUwc7KOXOLkdy-47" value="product review" style="ellipse;whiteSpace=wrap;html=1;fontSize=10;" vertex="1" parent="1">
          <mxGeometry x="355" y="481.68" width="140" height="30" as="geometry" />
        </mxCell>
        <mxCell id="CjYXlneHUwc7KOXOLkdy-60" style="edgeStyle=none;rounded=0;orthogonalLoop=1;jettySize=auto;html=1;exitX=1;exitY=0.5;exitDx=0;exitDy=0;entryX=0;entryY=0.5;entryDx=0;entryDy=0;fontSize=12;dashed=1;" edge="1" parent="1" source="CjYXlneHUwc7KOXOLkdy-48" target="CjYXlneHUwc7KOXOLkdy-59">
          <mxGeometry relative="1" as="geometry" />
        </mxCell>
        <mxCell id="CjYXlneHUwc7KOXOLkdy-61" value="&amp;lt;&amp;lt;include&amp;gt;&amp;gt;" style="edgeLabel;html=1;align=center;verticalAlign=middle;resizable=0;points=[];fontSize=10;rotation=0;" vertex="1" connectable="0" parent="CjYXlneHUwc7KOXOLkdy-60">
          <mxGeometry x="-0.375" y="-2" relative="1" as="geometry">
            <mxPoint x="10" y="-1" as="offset" />
          </mxGeometry>
        </mxCell>
        <mxCell id="CjYXlneHUwc7KOXOLkdy-48" value="Play mini-game" style="ellipse;whiteSpace=wrap;html=1;fontSize=10;" vertex="1" parent="1">
          <mxGeometry x="355" y="521.68" width="140" height="30" as="geometry" />
        </mxCell>
        <mxCell id="CjYXlneHUwc7KOXOLkdy-49" value="Product rating" style="ellipse;whiteSpace=wrap;html=1;fontSize=10;" vertex="1" parent="1">
          <mxGeometry x="355" y="561.68" width="140" height="30" as="geometry" />
        </mxCell>
        <mxCell id="CjYXlneHUwc7KOXOLkdy-51" value="Complain" style="ellipse;whiteSpace=wrap;html=1;fontSize=10;" vertex="1" parent="1">
          <mxGeometry x="355" y="401.68" width="140" height="30" as="geometry" />
        </mxCell>
        <mxCell id="CjYXlneHUwc7KOXOLkdy-59" value="Reward" style="ellipse;whiteSpace=wrap;html=1;fontSize=10;" vertex="1" parent="1">
          <mxGeometry x="580" y="561.68" width="140" height="30" as="geometry" />
        </mxCell>
        <mxCell id="CjYXlneHUwc7KOXOLkdy-62" value="Complaint management" style="ellipse;whiteSpace=wrap;html=1;fontSize=10;" vertex="1" parent="1">
          <mxGeometry x="570" y="350" width="140" height="30" as="geometry" />
        </mxCell>
        <mxCell id="CjYXlneHUwc7KOXOLkdy-64" value="Stock management" style="ellipse;whiteSpace=wrap;html=1;fontSize=10;" vertex="1" parent="1">
          <mxGeometry x="570" y="300" width="140" height="30" as="geometry" />
        </mxCell>
      </root>
    </mxGraphModel>
  </diagram>
</mxfile>
